<svg width="206" height="28" fill="none" xmlns="http://www.w3.org/2000/svg"><path d="M.52 27V1.8h5.868l10.44 17.136h-3.096L23.884 1.8h5.868l.072 25.2h-6.552L23.2 11.772h1.116L16.72 24.516h-3.168L5.74 11.772h1.368V27H.52Zm40.9-15.444h11.7v5.328h-11.7v-5.328Zm.504 9.936H55.1V27H34.868V1.8h19.764v5.508H41.924v14.184ZM59.055 27V1.8h5.868l10.44 17.136h-3.096L82.42 1.8h5.868L88.36 27h-6.552l-.072-15.228h1.116l-7.596 12.744h-3.168l-7.812-12.744h1.368V27h-6.588Zm47.38-17.172c3.072 0 5.448.684 7.128 2.052 1.704 1.368 2.556 3.42 2.556 6.156 0 2.952-.948 5.184-2.844 6.696-1.896 1.512-4.488 2.268-7.776 2.268H93.583V1.8h7.02v8.028h5.832Zm-1.404 12.06c1.2 0 2.148-.324 2.844-.972.72-.648 1.08-1.56 1.08-2.736 0-1.2-.36-2.04-1.08-2.52-.696-.504-1.644-.756-2.844-.756h-4.428v6.984h4.428ZM118.891 27V1.8h7.02V27h-7.02Zm21.126.504a23.44 23.44 0 0 1-5.976-.756c-1.896-.528-3.444-1.2-4.644-2.016l2.34-5.256c1.128.72 2.424 1.32 3.888 1.8a15.05 15.05 0 0 0 4.428.684c.984 0 1.776-.084 2.376-.252.6-.192 1.032-.432 1.296-.72.288-.312.432-.672.432-1.08 0-.576-.264-1.032-.792-1.368-.528-.336-1.212-.612-2.052-.828a63.976 63.976 0 0 0-2.808-.648 30.588 30.588 0 0 1-3.06-.828 12.777 12.777 0 0 1-2.772-1.296 6.673 6.673 0 0 1-2.052-2.124c-.528-.888-.792-2.004-.792-3.348 0-1.512.408-2.88 1.224-4.104.84-1.224 2.088-2.208 3.744-2.952 1.656-.744 3.72-1.116 6.192-1.116 1.656 0 3.276.192 4.86.576 1.608.36 3.036.9 4.284 1.62l-2.196 5.292c-1.2-.648-2.388-1.128-3.564-1.44a12.426 12.426 0 0 0-3.42-.504c-.984 0-1.776.108-2.376.324-.6.192-1.032.456-1.296.792s-.396.72-.396 1.152c0 .552.252.996.756 1.332.528.312 1.212.576 2.052.792.864.192 1.8.396 2.808.612 1.032.216 2.052.492 3.06.828 1.032.312 1.968.744 2.808 1.296a5.907 5.907 0 0 1 2.016 2.124c.528.864.792 1.956.792 3.276 0 1.464-.42 2.82-1.26 4.068-.816 1.224-2.052 2.208-3.708 2.952-1.632.744-3.696 1.116-6.192 1.116Zm27.484-17.676c3.072 0 5.448.684 7.128 2.052 1.704 1.368 2.556 3.42 2.556 6.156 0 2.952-.948 5.184-2.844 6.696-1.896 1.512-4.488 2.268-7.776 2.268h-11.916V1.8h7.02v8.028h5.832Zm-1.404 12.06c1.2 0 2.148-.324 2.844-.972.72-.648 1.08-1.56 1.08-2.736 0-1.2-.36-2.04-1.08-2.52-.696-.504-1.644-.756-2.844-.756h-4.428v6.984h4.428ZM179.957 27V1.8h7.02V27h-7.02Zm25.698-21.384-4.68 2.556v-1.08l4.68 2.52-2.088 3.456-4.32-2.592.54-.324.108 4.788h-4.104l.108-4.788.54.324-4.32 2.592-2.052-3.456 4.68-2.52v1.08l-4.68-2.556 2.052-3.456 4.32 2.628-.54.324-.108-4.824h4.104l-.108 4.824-.54-.324 4.32-2.628 2.088 3.456Z" fill="#000"/></svg>